<?xml version="1.0" ?><!DOCTYPE svg  PUBLIC '-//W3C//DTD SVG 1.1//EN'  'http://www.w3.org/Graphics/SVG/1.1/DTD/svg11.dtd'><svg height="100%" style="fill-rule:evenodd;clip-rule:evenodd;stroke-linejoin:round;stroke-miterlimit:2;" version="1.1" viewBox="0 0 32 32" width="100%" xml:space="preserve" xmlns="http://www.w3.org/2000/svg" xmlns:serif="http://www.serif.com/" xmlns:xlink="http://www.w3.org/1999/xlink"><path d="M12.067,27l14.43,-0c0.399,0 0.781,-0.159 1.062,-0.441c0.282,-0.282 0.439,-0.664 0.438,-1.063l-0.043,-16.317c-0.002,-0.827 -0.674,-1.496 -1.501,-1.496l-12.574,0.005c-0.507,-2.107 -2.493,-3.69 -4.876,-3.69c-2.668,-0 -4.84,1.986 -4.992,4.471c-0.008,0.036 -0.013,0.073 -0.013,0.112c0,-0 0,14.628 0,14.669c0,2.613 2.233,4.75 5.001,4.75c1.158,-0 2.222,-0.374 3.068,-1Zm-0.465,-0.903c0.855,-0.686 1.398,-1.705 1.398,-2.847c0,-2.078 -1.8,-3.75 -4.001,-3.75c-2.2,0 -4.001,1.672 -4.001,3.75c0,2.078 1.801,3.75 4.001,3.75c0.978,-0 1.877,-0.33 2.574,-0.88c0.009,-0.008 0.019,-0.015 0.029,-0.023Zm10.398,-17.412l0,17.315l4.497,0c0.133,0 0.261,-0.053 0.354,-0.147c0.094,-0.094 0.147,-0.221 0.146,-0.354l-0.043,-16.317c-0.001,-0.276 -0.225,-0.499 -0.5,-0.499l-4.454,0.002Zm-1,0l-4,0.002l0,17.313l4,0l0,-17.315Zm-7.924,17.315l2.924,0l0,-17.313l-1.996,0.001c-0,0.02 -0.004,14.341 -0.004,14.562c0,1.023 -0.342,1.973 -0.924,2.75Zm-4.073,-4.757c-1.102,-0 -1.997,0.895 -1.997,1.997c0,1.102 0.895,1.996 1.997,1.996c1.102,0 1.997,-0.894 1.997,-1.996c0,-1.102 -0.895,-1.997 -1.997,-1.997Zm0,1c0.55,-0 0.997,0.446 0.997,0.997c0,0.55 -0.447,0.996 -0.997,0.996c-0.55,0 -0.997,-0.446 -0.997,-0.996c0,-0.551 0.447,-0.997 0.997,-0.997Zm4.001,-1.836c0,0 0,-11.643 0,-11.659c0,-2.078 -1.8,-3.75 -4.001,-3.75c-2.2,-0 -4.001,1.672 -4.001,3.75c0,0.021 -0.002,11.652 -0.002,11.652c0.911,-1.152 2.361,-1.9 3.999,-1.9c1.641,-0 3.094,0.751 4.005,1.907Z" id="Carpet" fill="#FFFFFF"/></svg>