<?xml version="1.0" ?><svg viewBox="0 0 64 64" xmlns="http://www.w3.org/2000/svg"><g data-name="Cupboard" id="Cupboard-7">
<path d="M14.05,57H50a3,3,0,0,0,3-3V10a3,3,0,0,0-3-3H14.05a3,3,0,0,0-3,3V54A3,3,0,0,0,14.05,57ZM51,10V54a1,1,0,0,1-1,1H33V9H50A1,1,0,0,1,51,10Zm-37.9,0a1,1,0,0,1,1-1H31V55H14.05a1,1,0,0,1-1-1Z" fill="#FFFFFF"/>
<circle cx="26.6" cy="37.47" r="1.25" fill="#FFFFFF"/>
<circle cx="16.73" cy="12.23" r="1.25" fill="#FFFFFF"/>
<path d="M26.6,34.07a2.66,2.66,0,0,0,2.66-2.66V26.94a2.66,2.66,0,1,0-5.31,0v4.47A2.66,2.66,0,0,0,26.6,34.07ZM26,26.94a.66.66,0,1,1,1.31,0v4.47a.66.66,0,1,1-1.31,0Z" fill="#FFFFFF"/>
<circle cx="16.73" cy="16.78" r="1.25" fill="#FFFFFF"/>
<circle cx="37.4" cy="37.47" r="1.25" fill="#FFFFFF"/>
<path d="M37.4,34.07a2.66,2.66,0,0,0,2.65-2.66V26.94a2.66,2.66,0,1,0-5.31,0v4.47A2.66,2.66,0,0,0,37.4,34.07Zm-.66-7.13a.66.66,0,1,1,1.31,0v4.47a.66.66,0,1,1-1.31,0Z" fill="#FFFFFF"/>
<circle cx="47.27" cy="12.23" r="1.25" fill="#FFFFFF"/>
<circle cx="47.27" cy="16.78" r="1.25" fill="#FFFFFF"/></g></svg>