<?xml version="1.0" ?><svg viewBox="0 0 512 512" xmlns="http://www.w3.org/2000/svg"><g data-name="Out line" id="Out_line"><path d="M344,408a40.01443,40.01443,0,0,0-24.00684,8.0166A39.99142,39.99142,0,0,0,269.54,477.99854l10.58789-11.9961A24.00009,24.00009,0,1,1,320,448h16a39.73931,39.73931,0,0,0-5.34668-19.93945A23.99183,23.99183,0,0,1,368,448h16A40.04552,40.04552,0,0,0,344,408Z"/><path d="M476.12744,377.14a39.965,39.965,0,0,0-30.73193-56.766,48.11663,48.11663,0,0,0-20.60987-25.43237l5.81983-17.45972,61.2793-34.04443-7.76954-13.98633-64,35.55567a8.00323,8.00323,0,0,0-3.70507,4.46337l-6.52442,19.57227A47.94223,47.94223,0,0,0,352,336c0,.26721.01562.53418.02.80127a39.833,39.833,0,0,0-16.01563,7.21728,40.23977,40.23977,0,0,0-14.35986-11.89648l25.93359-12.9668-7.15624-14.31054-41.24317,20.62158A24.11668,24.11668,0,0,1,288.44629,328H240a8,8,0,0,1,0-16h39.502a40.05947,40.05947,0,0,0,19.84473-5.27051l48.62207-27.78369-7.9375-13.8916-48.623,27.78369A24.02962,24.02962,0,0,1,279.502,296H232a8,8,0,0,1,0-16h38.82227a39.96,39.96,0,0,0,21.20019-6.08008l56.21777-35.13574-8.48046-13.56836L283.542,260.35156A23.97281,23.97281,0,0,1,270.82227,264H224a8,8,0,0,1,0-16h38.82227a39.96,39.96,0,0,0,21.20019-6.08008l57.44824-35.90478a8.00015,8.00015,0,0,0,3.54688-8.61621L339.98291,176H376a7.99883,7.99883,0,0,0,4.11621-1.14014l80-48-8.23242-13.71972L408,139.47046v-16.157l57.65723-57.65674L454.34277,54.34326l-60,60A8.00035,8.00035,0,0,0,392,120v29.07056l-2.90527,1.74292a177.35693,177.35693,0,0,0-50.72705-45.86695l3.28955-3.28979L330.34277,90.34326l-8,8a31.63239,31.63239,0,0,1-44.68554,0,8.00122,8.00122,0,0,0-11.31446,0l-16,16A37.28862,37.28862,0,0,1,203.919,119.395L251.31348,72H328a8.00076,8.00076,0,0,0,5.65723-2.34326l40-40L362.34277,18.34326,324.68652,56H248a8.00076,8.00076,0,0,0-5.65723,2.34326L218.155,82.531A176.07252,176.07252,0,0,0,84.86865,322.11914,40.01874,40.01874,0,0,0,32,360q0,1.35279.09082,2.69836a47.822,47.822,0,0,0-12.89551,6.90223l9.60938,12.793A31.71721,31.71721,0,0,1,48,376a32.03635,32.03635,0,0,1,32,32H96a48.05468,48.05468,0,0,0-48-48,23.996,23.996,0,0,1,36.15991-20.68848,39.84209,39.84209,0,0,0-6.80346,8.68262l13.8496,8.01172a24.00442,24.00442,0,0,1,32.95923-8.69287,39.98341,39.98341,0,0,0-10.90454,38.68115l15.49414-3.98828a24.00695,24.00695,0,0,1,43.15137-19.41846l13.25781-8.95752a40.10794,40.10794,0,0,0-7.15429-8.00024A23.72411,23.72411,0,0,1,176,336a23.9921,23.9921,0,0,1,40.07544-17.81091C216.03052,318.7876,216,319.39014,216,320a23.92024,23.92024,0,0,0,6.93726,16.85767A39.964,39.964,0,0,0,209.459,378.71484a39.97818,39.97818,0,0,0-23.99047,26.5066A64.12335,64.12335,0,0,0,96,464a63.44725,63.44725,0,0,0,6.16211,27.43262l14.45312-6.86524A47.5601,47.5601,0,0,1,112,464a48.00588,48.00588,0,0,1,89.14746-24.73145l13.70508-8.25781a64.52876,64.52876,0,0,0-14.76123-16.96924,23.9428,23.9428,0,0,1,21.19775-21.89062,8,8,0,0,0,6.00586-12.00586,24.0024,24.0024,0,1,1,38.708,3.72656l11.99414,10.58887a39.94917,39.94917,0,0,0,7.14258-41.286A23.99329,23.99329,0,0,1,325.082,356.52,39.74,39.74,0,0,0,320,376h16a24,24,0,0,1,48,0h16a40.06853,40.06853,0,0,0-31.97949-39.19141C368.01367,336.53906,368,336.26978,368,336a32.0039,32.0039,0,0,1,60.61816-14.33044,40.02319,40.02319,0,0,0-18.61621,11.871l11.9961,10.58691a24.0022,24.0022,0,0,1,39.80713,25.90527A47.98658,47.98658,0,0,0,400,416h16a32,32,0,0,1,64,0h16A47.95848,47.95848,0,0,0,476.12744,377.14ZM231.74805,232l-5.64746-24h31.56347l5.64307,23.983c-.16162.0033-.32275.017-.48486.017Zm68.35742-64-38.39942,24H243.89453L282.294,168ZM278.46,226.52771l-5.35986-22.78088,49.67041-31.04419,5.36035,22.78174ZM152,336a39.80745,39.80745,0,0,0-13.25317,2.26636,39.64586,39.64586,0,0,0-33.36255-9.68909A160.08563,160.08563,0,0,1,196.05176,104.6344l-9.709,9.70886a8,8,0,0,0,0,11.31348,53.25535,53.25535,0,0,0,75.31446,0l10.81836-10.81836a47.72539,47.72539,0,0,0,53.19043,1.24353,161.21958,161.21958,0,0,1,49.63525,43.00793L373.78418,160H336.21826l-.43115-1.832-.021.00488c-.02978-.126-.03955-.25293-.07568-.37842A8.00037,8.00037,0,0,0,328,152H289.62158A112.00929,112.00929,0,0,0,161.11084,326.66626,39.9379,39.9379,0,0,0,160,336c0,.27551.019.55029.0249.82568A40.03769,40.03769,0,0,0,152,336Zm17.08984-25.35815A95.97592,95.97592,0,0,1,248,160a96.91594,96.91594,0,0,1,15.03223,1.17041l-51.27246,32.04541a7.98632,7.98632,0,0,0-3.52564,8.61169l-.02124.005,7.45044,31.66309a23.98627,23.98627,0,0,0-4.56274,42.72717,23.94182,23.94182,0,0,0-1.2483,21.01745,39.907,39.907,0,0,0-40.76245,13.40162Z"/><path d="M120,464a40.08917,40.08917,0,0,0,1.26074,9.99414l15.49414-3.98828a24.05907,24.05907,0,0,1,7.373-24.0083L133.54,434.00146A40.03419,40.03419,0,0,0,120,464Z"/><path d="M150.00586,425.26074l3.98828,15.49512a24.35275,24.35275,0,0,1,12.01172,0l3.98828-15.49512A40.43277,40.43277,0,0,0,150.00586,425.26074Z"/><path d="M200,320a16.01833,16.01833,0,0,0-16,16l15.99023.00049L200,336Z"/><path d="M232,368l15.99023.00049L248,368V352A16.01833,16.01833,0,0,0,232,368Z"/><path d="M280,448l15.99023.00049L296,448V432A16.01833,16.01833,0,0,0,280,448Z"/><path d="M376,376a16,16,0,0,0-32,0l16-.01025V376Z"/><path d="M376,336h16a8.00917,8.00917,0,0,1,8-8V312A24.02718,24.02718,0,0,0,376,336Z"/><path d="M440,344a16.01833,16.01833,0,0,0-16,16l15.99023.00049L440,360Z"/><path d="M440,416a7.8777,7.8777,0,0,1,1.06543-3.99463l-13.84961-8.01074a24.009,24.009,0,0,0,8.77832,32.78955l8.01172-13.84961A8.03762,8.03762,0,0,1,440,416Z"/><path d="M448,392v16a8.03881,8.03881,0,0,1,6.93457,4.00586l13.84961-8.01172A24.08453,24.08453,0,0,0,448,392Z"/></g></svg>