<?xml version="1.0" ?><!DOCTYPE svg  PUBLIC '-//W3C//DTD SVG 1.1//EN'  'http://www.w3.org/Graphics/SVG/1.1/DTD/svg11.dtd'><svg enable-background="new 0 0 64 64" height="64px" id="Layer_1" version="1.1" viewBox="0 0 64 64" width="64px" xml:space="preserve" xmlns="http://www.w3.org/2000/svg" xmlns:xlink="http://www.w3.org/1999/xlink"><g><path d="M54.332,40.087l-0.063-0.189l-0.363-0.961v-0.016l-0.016-0.015c-0.046-0.126-0.314-0.6-1.292-0.301   c-0.015,0-0.015,0-0.03,0v0.016c-1.34,0.394-5.23,1.56-9.609,2.805c-4.504,1.277-11.939,1.386-14.317,1.386   c-0.489,0-0.772,0-0.772,0H4.123c0,0-1.516-0.007-2.009,1.232c-0.001,0.002-0.001,0.002-0.001,0.002L0.19,48.887   c-0.103,0.271-0.354,1.218,1.102,1.218h41.747c0.975,0,1.181-0.613,1.228-0.975c0-0.081,0-0.145,0.017-0.206   c-0.017-0.047-0.017-0.08-0.017-0.08h0.017c0.062-0.85,0.251-1.716,0.519-2.378c0.143-0.314,0.3-0.582,0.457-0.786   c0.08-0.095,0.158-0.205,0.236-0.316c0.063-0.078,0.142-0.156,0.205-0.234c0.032-0.033,0.062-0.081,0.096-0.111   c0.016-0.015,0.016-0.015,0.03-0.033c0.521-0.518,1.087-0.944,1.545-1.228c0.502-0.314,0.866-0.472,0.866-0.472   c1.794-0.883,3.763-1.575,4.819-1.923l0.771-0.268C54.474,40.875,54.426,40.354,54.332,40.087z" fill="#241F20"/><g><path d="M63.894,45.125v0.014c0,0.085-0.014,0.184-0.029,0.254c-0.014,0.027-0.014,0.056-0.041,0.084    c-0.015,0.056-0.042,0.141-0.069,0.197c-0.198,0.337-0.479,0.548-0.719,0.548c-0.056,0-0.126-0.028-0.183-0.057l-0.562-0.295    l-0.407-0.239l-0.998-0.562l-0.113-0.07c-2.024-1.181-4.472-3.458-4.767-7.367c-0.322-4.231,1.14-8.52,1.364-11.739    c0.168-1.196,0.422-2.756,0.422-4.288v-0.015c-0.07-1.616-0.478-2.77-1.083-3.571c-0.014-0.014-0.041-0.041-0.057-0.07    c-1.911-2.109-4.766-1.616-5.792-1.35c-0.225,0.07-0.38,0.113-0.38,0.113c-1.054,0.365-2.264,0.998-3.472,2.082l1.658,2.206    c0.521,0.689,0.365,1.688-0.324,2.208c0,0-0.041,0.027-0.11,0.07c-0.155,0.142-0.381,0.478-0.142,1.027    c0.028,0.07,0.042,0.112,0.069,0.168l2.827,6.649c0.084,0.169,0.127,0.352,0.168,0.521h0.015c0,0,0.534,1.237,0.787,2.109    c0.169,0.619-0.295,0.928-0.464,1.04c-4.484,1.94-6.608,2.207-9.869,2.995C41.581,37.8,41.567,37.8,41.539,37.8    c-4.428,1.097-12.161,1.14-13.356,1.14H4.984c0,0-0.505-0.029-0.449-0.732c0.505-1.939,1.363-3.853,2.544-5.68    c0.029-0.057,0.07-0.126,0.155-0.267c0.872-1.477,5.385-8.253,16.885-12.063c0.113-0.056,0.225-0.085,0.338-0.112    c1.87-0.62,3.937-1.153,6.2-1.562c0.647-0.099,1.278-0.14,1.897-0.168c0.042,0,0.07,0,0.113-0.028    c0.126-0.015,0.266-0.015,0.421-0.029c2.968-0.154,5.82-0.183,7.677-0.183c0,0,0.014,0,0.029,0c1.096,0,1.658-0.337,1.771-0.421    c0.014-0.029,0.027-0.029,0.027-0.029l1.027-0.773c0.505-0.365,1.167-0.421,1.672-0.14c0,0,1.027-1.041,2.771-1.827v-0.015    c0.069-0.028,0.153-0.07,0.238-0.113c0.084-0.027,0.21-0.07,0.365-0.14c0.155-0.042,0.324-0.099,0.521-0.169    c0.084-0.027,0.196-0.056,0.309-0.097c0.226-0.057,0.451-0.128,0.703-0.184c0.127-0.014,0.268-0.041,0.395-0.084    c0.042-0.014,0.084-0.014,0.126-0.014c2.587-0.506,6.396-0.408,8.296,3.655c0.056,0.113,0.126,0.253,0.169,0.38    c0.097,0.224,0.183,0.449,0.266,0.703c0.365,1.181,0.465,2.432,0.381,3.599c0,0.14-0.016,0.352-0.043,0.633    c-0.169,1.532-0.703,5.02-1.14,7.733c0,0-0.014,0.112-0.041,0.295c-0.126,1.026-0.549,4.443-0.352,6.692    c0.014,0.085,0.014,0.155,0.027,0.238c0,0,0,0.043,0.014,0.127c0.016,0.128,0.043,0.238,0.072,0.352    c0.027,0.127,0.056,0.268,0.083,0.423c0.338,1.194,1.237,3.331,3.642,4.836h0.014c0.211,0.126,0.407,0.252,0.605,0.365h0.014    l0.014,0.015l0.941,0.52C63.823,44.746,63.894,44.929,63.894,45.125z" fill="#241F20"/></g></g></svg>