<?xml version="1.0" ?><!DOCTYPE svg  PUBLIC '-//W3C//DTD SVG 1.1//EN'  'http://www.w3.org/Graphics/SVG/1.1/DTD/svg11.dtd'><svg enable-background="new 0 0 48 48" height="48px" version="1.1" viewBox="0 0 48 48" width="48px" xml:space="preserve" xmlns="http://www.w3.org/2000/svg" xmlns:xlink="http://www.w3.org/1999/xlink"><g id="Layer_5"><g><path d="M47.967,30.119l0.021,0.028L47.928,2.688c0-1.312-1.066-2.375-2.377-2.375    c-0.727,0-1.348,0.341-1.787,0.851l-0.021-0.007l-8.43,10.36v0.037C32.266,8.949,28.326,7.355,24,7.355    c-4.285,0-8.19,1.568-11.231,4.129l0.017-0.047L4.37,1.193L4.344,1.206C3.908,0.674,3.275,0.313,2.538,0.313    c-1.303,0-2.359,1.055-2.359,2.358l-0.17,27.803c0,0.006-0.003,0.014-0.003,0.017c0,0.009,0,0.018,0,0.021v0.183h0.012    c0.105,9.25,7.516,16.732,16.736,16.968v0.024h14.045c9.496,0,17.195-7.699,17.195-17.195    C47.994,30.367,47.967,30.246,47.967,30.119z M29.609,44.692H19.16c-0.257,0.012-0.511,0.038-0.771,0.038    c-8.521,0-15.427-6.909-15.427-15.429c0-0.355,0.018-0.707,0.041-1.058L3,28.247V16.286V7.094V3.491l9.465,11.577    c0,0-0.001,0.011-0.001,0.013c0.064-0.027,0.122-0.064,0.187-0.091C15.559,12.09,19.57,10.297,24,10.297    c4.396,0,8.379,1.769,11.279,4.63l9.74-11.437V6.54v7.483v14.582l-0.008-0.001c0.01,0.219,0.025,0.438,0.025,0.661    C45.037,37.784,38.131,44.692,29.609,44.692z" fill="#241F20"/><circle cx="15.039" cy="23.63" fill="#241F20" r="2.587"/><circle cx="32.961" cy="23.63" fill="#241F20" r="2.587"/><polygon fill="#241F20" points="24,34.329 29.174,29.295 18.827,29.295   "/></g></g></svg>