<?xml version="1.0" ?><svg data-name="Layer 1" id="Layer_1" viewBox="0 0 512 512" xmlns="http://www.w3.org/2000/svg"><title/><path d="M114.17,389.21a22.26,22.26,0,1,0,22.26,22.26A22.29,22.29,0,0,0,114.17,389.21Zm0,33.23a11,11,0,1,1,11-11A11,11,0,0,1,114.17,422.44Z"/><path d="M428.06,106.74c-28.07-3.69-48.9,5.4-65.62,12.74-15.29,6.72-24.34,10.29-32.49,5.25-7.51-4.59-6.68-11.54-3.19-25.23,2.84-11.12,6.72-26.33-9.09-32C302.41,62,292.36,72.32,285,79.86c-7.21,7.38-9.19,8.49-11.87,6.77-4.31-2.81-6.59-9.52-9-16.62-4-11.86-9.76-28.13-29.57-27-17.18,1-21.08,16.66-24.19,29.26C207,86,205.06,91.85,196.88,91.71c-23.08-.66-44.79-30.31-45-30.61a5.64,5.64,0,0,0-9.49,6.06c.19.34,19.23,34.84,6.81,55.65-12.1,20.29-35.35,17.7-36.38,17.61a5.72,5.72,0,0,0-5.64,2.92,5.62,5.62,0,0,0,.63,6.31c7.09,8.43,23.44,33,14,45.37-7.81,10.3-6.89,19.41-4.74,25.24,4.52,12.24,19,22.09,38.75,26.36,13.54,2.92,21.18,15.68,21.5,26.18.18,5.35-1.38,14.84-13.61,18.29-2.6.72-5.75,1.41-9.23,2.16-22.61,4.92-64.68,14.08-55,61.3,3.82,18.73,18.67,31.26,37.84,31.94,16.86.49,36-8.65,42.1-30.61,9-32.06,21.8-45.78,27.7-44.8,5.19.77,8.64,3.39,10.52,8,4.13,10,.41,30.69-17.18,54.16-19.85,26.44-19.38,47.36-15.5,60.25a48.55,48.55,0,0,0,29.33,31.55,70.4,70.4,0,0,0,23.21,4,55.88,55.88,0,0,0,27.33-6.67c12.13-6.78,20.3-18.59,23.59-34.15,7.28-34.48-8.2-60.06-21.85-82.61-2.76-4.57-5.49-9.09-8-13.62-7.42-13.34-1.27-31.77,8.78-38.14,10.37-6.6,19.72,3.3,24.37,9.77,15.93,22.14,32.91,26.12,44.5,25.32a44.29,44.29,0,0,0,35.41-22.17c7.19-12.94,8.41-26.63,3.35-37.57-3.86-8.34-13.3-19.24-36.38-23.86-18.06-3.61-24.9-18.05-25.28-29.32-.36-10.45,5-24.21,21.15-28.59,16.92-4.58,28,.52,42,7,13.28,6.12,28,13,50.93,12.67,26.66-.45,40.16-24.34,41.42-46.35C470.18,137.49,458,110.69,428.06,106.74Zm29.51,53.33c-1,17-10.88,35.39-30.33,35.72-20.15.31-33.24-5.75-46-11.64-14.82-6.82-28.82-13.31-49.7-7.64-18.57,5-30.13,20.67-29.5,39.86.56,16.6,11.4,35.41,34.36,40,14.59,2.91,24.39,9,28.36,17.53,3.52,7.63,2.43,17.6-3,27.35a33.24,33.24,0,0,1-26.2,16.39c-12.39.8-24.45-6.42-34.67-20.64-17.35-24.13-34.68-15.83-39.59-12.72-14.4,9.14-23.05,34.34-12.6,53.15,2.58,4.65,5.39,9.29,8.22,14,13.19,21.78,26.83,44.32,20.45,74.44-2.63,12.45-8.71,21.42-18,26.63-13.44,7.51-30.63,5.72-41.25,1.94a37.66,37.66,0,0,1-22.33-24.17c-4.48-14.93.27-32.3,13.73-50.24,18.09-24.12,25.22-49.11,18.61-65.22-3.38-8.24-10.24-13.53-19.29-14.88a14.52,14.52,0,0,0-2.17-.17c-14.21,0-29,20.4-38.08,53.09-4.47,16-18.36,22.87-30.83,22.38-11-.39-23.86-6.62-27.19-22.93-6.85-33.53,18-41.84,46.39-48,3.73-.81,7.11-1.55,9.88-2.34,13.91-3.92,22.29-15.22,21.85-29.49-.46-14.77-11.27-32.72-30.41-36.86-15.71-3.39-27.41-10.77-30.54-19.24-1.72-4.63-.66-9.51,3.14-14.5,11.83-15.58.43-38-7.77-50.44,10.58-1.32,25.94-6.27,35.83-22.82,7.4-12.41,6.55-27.62,3.49-40.4,9.36,7.58,21.32,14.44,34.17,14.8h.8c17,0,21.05-16.14,24-28,3.41-13.72,5.89-20.25,13.9-20.7,11-.68,13.93,6.56,18.23,19.3,2.92,8.62,5.94,17.53,13.54,22.47,11,7.12,19.73-1.82,26.08-8.36,7.7-7.88,12.88-12.48,20.77-9.63,5.13,1.84,5.46,5,2,18.61-3,11.89-7.19,28.2,8.21,37.65,13.64,8.32,27.21,2.37,42.94-4.55,16.21-7.12,34.57-15.17,59.61-11.89C449.49,121,458.66,141.27,457.57,160.07Z"/><path d="M100.76,129.58a28.85,28.85,0,1,0-28.85,28.86A28.88,28.88,0,0,0,100.76,129.58ZM71.91,147.16a17.58,17.58,0,1,1,17.57-17.58A17.6,17.6,0,0,1,71.91,147.16Z"/></svg>